<svg xmlns="http://www.w3.org/2000/svg" viewBox="0 0 900 440" font-family="-apple-system, BlinkMacSystemFont, 'Segoe UI', Roboto, sans-serif">
  <defs>
    <linearGradient id="bg4" x1="0" y1="0" x2="0" y2="1">
      <stop offset="0%" stop-color="#0d1117"/>
      <stop offset="100%" stop-color="#161b22"/>
    </linearGradient>
    <filter id="s4">
      <feDropShadow dx="0" dy="2" stdDeviation="3" flood-color="#000" flood-opacity="0.4"/>
    </filter>
  </defs>

  <rect width="900" height="440" fill="url(#bg4)" rx="12"/>

  <!-- Title -->
  <text x="450" y="35" fill="#e6edf3" font-size="16" font-weight="700" text-anchor="middle">Lambda Name Resolution</text>
  <text x="450" y="55" fill="#8b949e" font-size="11" text-anchor="middle">How Rebound turns 80% &lt;anonymous&gt; trees into readable composable names</text>

  <!-- BEFORE panel -->
  <text x="220" y="88" fill="#ef4444" font-size="13" font-weight="700" text-anchor="middle">BEFORE</text>
  <text x="220" y="104" fill="#6b7280" font-size="10" text-anchor="middle">Raw IR / kotlinFqName</text>

  <rect x="40" y="118" width="360" height="290" rx="8" fill="#1a1e2e" stroke="#30363d" stroke-width="1.5" filter="url(#s4)"/>

  <!-- Tree lines - before -->
  <text x="60" y="150" fill="#e6edf3" font-size="12" font-family="'JetBrains Mono', 'Fira Code', monospace">HomeScreen</text>
  <line x1="72" y1="158" x2="72" y2="176" stroke="#30363d" stroke-width="1.5"/>
  <line x1="72" y1="176" x2="82" y2="176" stroke="#30363d" stroke-width="1.5"/>
  <text x="88" y="180" fill="#ef4444" font-size="12" font-family="'JetBrains Mono', 'Fira Code', monospace">&lt;anonymous&gt;</text>
  <text x="250" y="180" fill="#6b7280" font-size="10" font-style="italic">← Scaffold content?</text>

  <line x1="72" y1="176" x2="72" y2="206" stroke="#30363d" stroke-width="1.5"/>
  <line x1="72" y1="206" x2="82" y2="206" stroke="#30363d" stroke-width="1.5"/>
  <text x="88" y="210" fill="#ef4444" font-size="12" font-family="'JetBrains Mono', 'Fira Code', monospace">&lt;anonymous&gt;</text>
  <text x="250" y="210" fill="#6b7280" font-size="10" font-style="italic">← NavHost builder?</text>

  <line x1="100" y1="218" x2="100" y2="240" stroke="#30363d" stroke-width="1.5"/>
  <line x1="100" y1="240" x2="110" y2="240" stroke="#30363d" stroke-width="1.5"/>
  <text x="116" y="244" fill="#ef4444" font-size="12" font-family="'JetBrains Mono', 'Fira Code', monospace">&lt;anonymous&gt;</text>
  <text x="278" y="244" fill="#6b7280" font-size="10" font-style="italic">← Column?</text>

  <line x1="128" y1="252" x2="128" y2="274" stroke="#30363d" stroke-width="1.5"/>
  <line x1="128" y1="274" x2="138" y2="274" stroke="#30363d" stroke-width="1.5"/>
  <text x="144" y="278" fill="#ef4444" font-size="12" font-family="'JetBrains Mono', 'Fira Code', monospace">&lt;anonymous&gt;</text>
  <text x="306" y="278" fill="#6b7280" font-size="10" font-style="italic">← Row?</text>

  <line x1="128" y1="274" x2="128" y2="304" stroke="#30363d" stroke-width="1.5"/>
  <line x1="128" y1="304" x2="138" y2="304" stroke="#30363d" stroke-width="1.5"/>
  <text x="144" y="308" fill="#ef4444" font-size="12" font-family="'JetBrains Mono', 'Fira Code', monospace">&lt;anonymous&gt;</text>
  <text x="306" y="308" fill="#6b7280" font-size="10" font-style="italic">← ???</text>

  <line x1="72" y1="206" x2="72" y2="338" stroke="#30363d" stroke-width="1.5"/>
  <line x1="72" y1="338" x2="82" y2="338" stroke="#30363d" stroke-width="1.5"/>
  <text x="88" y="342" fill="#ef4444" font-size="12" font-family="'JetBrains Mono', 'Fira Code', monospace">&lt;anonymous&gt;</text>
  <text x="250" y="342" fill="#6b7280" font-size="10" font-style="italic">← who knows</text>

  <!-- Violation callout on before side -->
  <rect x="60" y="365" width="320" height="30" rx="6" fill="#3b0712" stroke="#ef4444" stroke-width="1" opacity="0.8"/>
  <text x="220" y="385" fill="#fca5a5" font-size="10" text-anchor="middle">⚠  VIOLATION on &lt;anonymous&gt; — which one?</text>

  <!-- Arrow between panels -->
  <text x="450" y="240" fill="#f97316" font-size="24" font-weight="700" text-anchor="middle">→</text>
  <text x="450" y="260" fill="#f97316" font-size="10" font-weight="600" text-anchor="middle">IR walk</text>

  <!-- AFTER panel -->
  <text x="680" y="88" fill="#22c55e" font-size="13" font-weight="700" text-anchor="middle">AFTER</text>
  <text x="680" y="104" fill="#6b7280" font-size="10" text-anchor="middle">Rebound resolved names</text>

  <rect x="500" y="118" width="370" height="290" rx="8" fill="#1a1e2e" stroke="#30363d" stroke-width="1.5" filter="url(#s4)"/>

  <!-- Tree lines - after -->
  <text x="520" y="150" fill="#e6edf3" font-size="12" font-family="'JetBrains Mono', 'Fira Code', monospace">HomeScreen</text>
  <line x1="532" y1="158" x2="532" y2="176" stroke="#30363d" stroke-width="1.5"/>
  <line x1="532" y1="176" x2="542" y2="176" stroke="#30363d" stroke-width="1.5"/>
  <text x="548" y="180" fill="#22c55e" font-size="12" font-family="'JetBrains Mono', 'Fira Code', monospace">HomeScreen.Scaffold{}</text>

  <line x1="532" y1="176" x2="532" y2="206" stroke="#30363d" stroke-width="1.5"/>
  <line x1="532" y1="206" x2="542" y2="206" stroke="#30363d" stroke-width="1.5"/>
  <text x="548" y="210" fill="#22c55e" font-size="12" font-family="'JetBrains Mono', 'Fira Code', monospace">HomeScreen.NavHost{}</text>

  <line x1="560" y1="218" x2="560" y2="240" stroke="#30363d" stroke-width="1.5"/>
  <line x1="560" y1="240" x2="570" y2="240" stroke="#30363d" stroke-width="1.5"/>
  <text x="576" y="244" fill="#22c55e" font-size="12" font-family="'JetBrains Mono', 'Fira Code', monospace">Profile.Column{}</text>

  <line x1="588" y1="252" x2="588" y2="274" stroke="#30363d" stroke-width="1.5"/>
  <line x1="588" y1="274" x2="598" y2="274" stroke="#30363d" stroke-width="1.5"/>
  <text x="604" y="278" fill="#22c55e" font-size="12" font-family="'JetBrains Mono', 'Fira Code', monospace">Header.Row{}</text>

  <line x1="588" y1="274" x2="588" y2="304" stroke="#30363d" stroke-width="1.5"/>
  <line x1="588" y1="304" x2="598" y2="304" stroke="#30363d" stroke-width="1.5"/>
  <text x="604" y="308" fill="#22c55e" font-size="12" font-family="'JetBrains Mono', 'Fira Code', monospace">Avatar.Box{}</text>

  <line x1="532" y1="206" x2="532" y2="338" stroke="#30363d" stroke-width="1.5"/>
  <line x1="532" y1="338" x2="542" y2="338" stroke="#30363d" stroke-width="1.5"/>
  <text x="548" y="342" fill="#22c55e" font-size="12" font-family="'JetBrains Mono', 'Fira Code', monospace">Settings.LazyColumn{}</text>

  <!-- Violation callout on after side -->
  <rect x="520" y="365" width="330" height="30" rx="6" fill="#052e16" stroke="#22c55e" stroke-width="1" opacity="0.8"/>
  <text x="685" y="385" fill="#86efac" font-size="10" text-anchor="middle">✓  VIOLATION on Header.Row{} — navigate to source</text>
</svg>